<?xml version="1.0" encoding="UTF-8"?>
<svg width="27px" height="39px" viewBox="0 0 27 39" version="1.1" xmlns="http://www.w3.org/2000/svg" xmlns:xlink="http://www.w3.org/1999/xlink">
    <!-- Generator: Sketch 52.6 (67491) - http://www.bohemiancoding.com/sketch -->
    <title>Shape</title>
    <desc>Created with Sketch.</desc>
    <g id="Side-By-Side" stroke="none" stroke-width="1" fill="none" fill-rule="evenodd">
        <g id="Group-5" transform="translate(-37.000000, -31.000000)" fill="#AA3EC2" fill-rule="nonzero">
            <g id="Group-9" transform="translate(18.000000, 18.000000)">
                <path d="M44.9363753,33.4602707 C44.0682954,32.2886543 42.7583496,31.4839068 41.0066167,31.0465209 C43.2373391,29.8588966 44.2176552,27.8432107 43.9485087,24.9991349 C43.858531,23.9678136 43.585452,23.0739964 43.1286423,22.3163698 C42.6715181,21.5585789 42.054652,20.9493745 41.2756845,20.4885103 C40.4973463,20.0270714 39.650817,19.6757999 38.7380628,19.4336287 C37.8250727,19.1914574 36.7768801,19.0156164 35.594193,18.906352 L35.594193,13 L32.1363452,13 L32.1363452,18.7422502 C31.5375691,18.7422502 30.6244216,18.7578477 29.3969816,18.7891247 L29.3969816,13 L25.9386619,13 L25.9386619,18.906352 C25.4444926,18.9220316 24.7185365,18.9299945 23.7604789,18.9299945 L19,18.906352 L19,22.7502258 L21.4923969,22.7502258 C22.6301739,22.7502258 23.2963547,23.281607 23.4909392,24.343959 L23.4909392,31.070738 C23.6408495,31.070738 23.7604789,31.078783 23.8503779,31.0943805 L23.4909392,31.0943805 L23.4909392,40.5159921 C23.3713098,41.3126946 22.9372305,41.7114152 22.1886227,41.7114152 L19.696383,41.7114152 L19.0001573,46.0006378 L23.4913325,46.0006378 C23.775816,46.0006378 24.1872436,46.0045782 24.7264017,46.0116381 C25.2652452,46.0195189 25.6692795,46.0234594 25.9388192,46.0234594 L25.9388192,52 L29.3976895,52 L29.3976895,46.0937301 C30.0262747,46.109738 30.9394221,46.1173726 32.1370531,46.1173726 L32.1370531,52 L35.5949795,52 L35.5949795,46.0234594 C36.8228128,45.9610695 37.9118256,45.8444989 38.8620181,45.6720237 C39.8126824,45.4995485 40.7223691,45.2304511 41.590449,44.8630075 C42.4584503,44.4960564 43.1844064,44.0387221 43.7681601,43.4918255 C44.3522284,42.9454215 44.8345999,42.2497742 45.217005,41.4058689 C45.5981516,40.5619636 45.8417362,39.5853977 45.9461858,38.4757608 C46.1416355,36.3044285 45.8046126,34.6323796 44.9363753,33.4602707 Z M29.4642289,23.0073378 C29.5690718,23.0073378 29.8647239,23.0033973 30.3512639,22.9955165 C30.8380399,22.9874715 31.2420742,22.9797549 31.5639174,22.971874 C31.8858392,22.9641574 32.3199972,22.9836953 32.8666272,23.0305698 C33.4130213,23.0774443 33.8732916,23.1400805 34.2474382,23.2180678 C34.6215848,23.2960552 35.0336416,23.4250216 35.4823501,23.6047209 C35.9318452,23.784256 36.2908907,24.0031132 36.5600371,24.2608819 C36.8297342,24.5186507 37.0579817,24.8469364 37.2447797,25.2454107 C37.4321283,25.643803 37.5257239,26.1008089 37.5257239,26.6163464 C37.5257239,27.0538965 37.4584767,27.452453 37.3239034,27.8120157 C37.1895661,28.1713322 36.9869591,28.4721992 36.7178126,28.7143705 C36.4485875,28.9566239 36.171104,29.1677644 35.8866204,29.3472995 C35.6024514,29.5268346 35.2390801,29.6714806 34.7976076,29.780745 C34.3562137,29.8901736 33.9707412,29.9761239 33.6415834,30.0385138 C33.3121896,30.1010678 32.9006048,30.1441661 32.4065142,30.1674802 C31.9123449,30.1907943 31.5379623,30.2067202 31.2836024,30.2144368 C31.0290065,30.2221535 30.6810509,30.2221535 30.2392638,30.2144368 C29.7973979,30.2067202 29.5394987,30.2026156 29.4644649,30.2026156 L29.4644649,23.0072557 L29.4642289,23.0072557 L29.4642289,23.0073378 Z M38.9071642,38.9682304 C38.7645685,39.3277932 38.5814671,39.6404814 38.3570735,39.9062952 C38.1322866,40.1714522 37.8364772,40.406071 37.4698812,40.6089202 C37.1033638,40.8123441 36.7474644,40.9761176 36.4034414,41.1011436 C36.0589465,41.2266622 35.6433504,41.335434 35.1572823,41.4295114 C34.670113,41.5233425 34.2437416,41.5893445 33.876595,41.6286665 C33.5099989,41.6678244 33.0723017,41.6989372 32.5631099,41.7225797 C32.0543114,41.7455655 31.6573557,41.7574688 31.3730295,41.7574688 C31.0885459,41.7574688 30.7291858,41.7532 30.2950279,41.7455655 C29.860634,41.7382593 29.583937,41.7343189 29.4640716,41.7343189 L29.4640716,33.8120347 C29.583701,33.8120347 29.9392858,33.8044001 30.5307473,33.7884743 C31.1222875,33.7727126 31.6048163,33.7654064 31.9791203,33.7654064 C32.3533455,33.7654064 32.8700092,33.7884743 33.528954,33.8356772 C34.1872696,33.8822233 34.7412142,33.9522477 35.1907093,34.0459968 C35.6396538,34.13991 36.1295758,34.2842276 36.6614193,34.4797706 C37.1927122,34.6749853 37.6233308,34.9132162 37.9528032,35.1944632 C38.282197,35.4762028 38.5589727,35.8350267 38.7834449,36.272659 C39.0084677,36.7100449 39.1207038,37.2101491 39.1207038,37.7728074 C39.1206252,38.2107679 39.0496026,38.6085856 38.9071642,38.9682304 Z" id="Shape"></path>
            </g>
        </g>
    </g>
</svg>