<?xml version="1.0" encoding="UTF-8"?>
<svg width="204px" height="285px" viewBox="0 0 204 285" version="1.1" xmlns="http://www.w3.org/2000/svg" xmlns:xlink="http://www.w3.org/1999/xlink">
    <!-- Generator: Sketch 52.6 (67491) - http://www.bohemiancoding.com/sketch -->
    <title>Shape</title>
    <desc>Created with Sketch.</desc>
    <g id="Side-By-Side" stroke="none" stroke-width="1" fill="none" fill-rule="evenodd" opacity="0.045">
        <g id="No-History" transform="translate(-45.000000, -45.000000)" fill="#FFFFFF" fill-rule="nonzero">
            <path d="M240.963725,194.517362 C234.404899,185.95555 224.507531,180.074704 211.272215,176.878422 C228.126562,168.199629 235.533395,153.469617 233.499844,132.685986 C232.820012,125.149407 230.756748,118.617666 227.305298,113.081164 C223.85147,107.543461 219.190704,103.091583 213.305172,99.723729 C207.424394,96.3516756 201.028395,93.7846917 194.13203,92.0149786 C187.233883,90.2452655 179.314206,88.9602738 170.378347,88.1618032 L170.378347,45 L144.252386,45 L144.252386,86.9625976 C139.728299,86.9625976 132.828963,87.0765792 123.554972,87.3051421 L123.554972,45 L97.4254456,45 L97.4254456,88.1618032 C93.6917222,88.2763847 88.2067204,88.3345752 80.968063,88.3345752 L45,88.1618032 L45,116.25165 L63.8314435,116.25165 C72.4279805,116.25165 77.4613462,120.13482 78.9315407,127.898162 L78.9315407,177.055393 C80.0641965,177.055393 80.968063,177.114184 81.6473,177.228165 L78.9315407,177.228165 L78.9315407,246.078404 C78.0276742,251.90046 74.747964,254.814188 69.0918158,254.814188 L50.2615608,254.814188 L45.0011885,286.158507 L78.934512,286.158507 C81.0839433,286.158507 84.1925072,286.187302 88.2661462,286.238894 C92.3374081,286.296485 95.3901118,286.32528 97.4266341,286.32528 L97.4266341,330 L123.560321,330 L123.560321,286.838797 C128.309631,286.955778 135.208967,287.011569 144.257734,287.011569 L144.257734,330 L170.38429,330 L170.38429,286.32528 C179.661252,285.869354 187.889349,285.017492 195.068581,283.757096 C202.251378,282.496701 209.124567,280.530219 215.683393,277.845055 C222.241625,275.163489 227.726627,271.821431 232.13721,267.824879 C236.55017,263.831926 240.194755,258.74835 243.084037,252.58135 C245.963812,246.41435 247.804229,239.277907 248.593404,231.169021 C250.070135,215.301593 247.523739,203.082774 240.963725,194.517362 Z M124.063063,118.130545 C124.855209,118.130545 127.089025,118.10175 130.765105,118.044159 C134.442968,117.985369 137.495672,117.928978 139.927376,117.871387 C142.359674,117.814996 145.639979,117.957773 149.770072,118.300318 C153.898383,118.642862 157.375981,119.100588 160.202867,119.670496 C163.029752,120.240403 166.14307,121.18285 169.533312,122.496037 C172.929497,123.808025 175.642285,125.407366 177.675836,127.29106 C179.713547,129.174755 181.438084,131.573766 182.849447,134.485694 C184.264969,137.397022 184.972136,140.736681 184.972136,144.50407 C184.972136,147.701552 184.464046,150.614079 183.44727,153.241653 C182.432278,155.867428 180.901469,158.066071 178.867918,159.835785 C176.833772,161.606098 174.73723,163.149047 172.587799,164.461035 C170.440744,165.773022 167.695272,166.830051 164.359702,167.628521 C161.024725,168.428192 158.112267,169.05629 155.625297,169.512216 C153.136544,169.969342 150.026792,170.284291 146.293662,170.454663 C142.559939,170.625036 139.731271,170.741417 137.80944,170.797808 C135.885827,170.854198 133.256829,170.854198 129.918882,170.797808 C126.58034,170.741417 124.631768,170.711422 124.064846,170.711422 L124.064846,118.129945 L124.063063,118.129945 L124.063063,118.130545 Z M195.409685,234.767838 C194.332295,237.395412 192.948862,239.680441 191.253444,241.622926 C189.555055,243.560612 187.32005,245.275134 184.550213,246.757494 C181.780971,248.244053 179.091953,249.440859 176.492668,250.354511 C173.889818,251.271762 170.749758,252.066633 167.077244,252.754122 C163.396409,253.439811 160.174936,253.922133 157.40094,254.209486 C154.631103,254.49564 151.324057,254.723003 147.47683,254.895775 C143.632575,255.063748 140.633355,255.150733 138.485112,255.150733 C136.33568,255.150733 133.620515,255.119539 130.340211,255.063748 C127.058124,255.010356 124.967524,254.981561 124.061874,254.981561 L124.061874,197.087946 C124.965741,197.087946 127.652382,197.032155 132.121202,196.915774 C136.590617,196.800592 140.23639,196.747201 143.064464,196.747201 C145.891944,196.747201 149.795625,196.915774 154.774319,197.260718 C159.748259,197.600863 163.933619,198.11258 167.329803,198.797669 C170.721828,199.483957 174.423462,200.538586 178.441835,201.967555 C182.456048,203.394123 185.709611,205.135041 188.198958,207.190308 C190.68771,209.249174 192.778905,211.871349 194.474917,215.069431 C196.175089,218.265713 197.023096,221.92032 197.023096,226.032054 C197.022501,229.232535 196.485886,232.139664 195.409685,234.767838 Z" id="Shape"></path>
        </g>
    </g>
</svg>